<svg width="143" height="100" fill="none" xmlns="http://www.w3.org/2000/svg"><path d="M35.661 34.23c-16.216-.871-19.12 3.113-19.12 3.113l33.835 18.641 5.498-17.058-20.213-4.696Z" fill="#F5BCA4"/><path d="m58.996 59.799 3.208-18.115s-8.738-4.596-18.977-5.874a46.772 46.772 0 0 1-2.595-.406l-4.65 18.267 23.014 6.128Z" fill="#7E74B2"/><path d="M45.197 92.108h56.308S98.271 58.439 83.83 43.514c-16.917-17.484-33.835-.643-33.835-.643s9.931 23.01-4.798 49.237Z" fill="#7E74B2"/><path d="M65.921 41.436s-6.255 20.758-12.88 16.037l-1.47-11.166" fill="#7E74B2" style="mix-blend-mode:multiply" opacity=".5"/><path d="M61.258 45.806c.218-.3-3.715-11.515-4.511-13.593-.796-2.078-6.818-2.428-6.818-2.428l-31.197-3.732a6.176 6.176 0 0 0-4.345 1.893 6.403 6.403 0 0 0-1.79 4.454 6.402 6.402 0 0 0 1.797 4.451 6.175 6.175 0 0 0 4.347 1.886l30.4-2.378c2.61-.562 4.13 4.652 4.645 6.193.517 1.54 2.869 1 2.869 1s.272.283 1.165 2.371c.892 2.089 3.219.183 3.438-.117Z" fill="#F5BCA4"/><path d="M61.989 36.187c-.703 7.574-5.475 9.452-10.955 8.925-5.48-.527-13.95-3.953-13.247-11.524.703-7.57 9.241-13.536 14.721-13.01 5.48.528 10.186 8.035 9.48 15.609Z" fill="#403B45"/><path d="M42.356 43.836s9.199 9.44 12.64 9.254c3.442-.186 6.8-6.324 5.724-12.492 0 0 2.606-.863 1.774-4.326-1.424-5.906-5.082-1.027-5.082-1.027l-4.01-3.184S34.834 37.43 42.355 43.835Z" fill="#F5BCA4"/><path d="M49.614 37.532s-11.961 12.945-22.975-5.459c0 0 7.554-.964 10.646-7.842 3.869-8.602 23.085-9.32 21.935 3.527" fill="#403B45"/><path d="M51.387 48.4s4.67-2.315 6.186-.321l-4.734 2.249" fill="#fff"/><path d="m100.833 67.902-13.974 3.704 6.754 14.012-16.692.493-14.285-.143s-10.18 4.425-10.8 4.93c-.621.506-1.117 3.792-1.117 3.792s-.745.132 1.24.253c1.987.122 9.058.633 9.058.633s7.925-1.197 9.165-1.318c.875-.09 39.134 1.008 41.369-.943 1.502-1.302-5.666-14.367-10.718-25.413Z" fill="#F5BCA4"/><path opacity=".25" d="M88.77 75.32s-1.795-3.514-1.795-3.767c0-5.412 8.382-7.54 13.715-3.738l1.435 2.867-13.356 4.637Z" fill="#403B45"/><path d="M9.792 92.176c0 1.365 1.035 2.387 2.513 2.387h49.618c1.475 0 2.748-1.022 2.748-2.387v-.143c0-1.365-1.273-2.436-2.748-2.436H12.302c-1.476 0-2.513 1.071-2.513 2.436l.003.143Z" fill="#77757A"/><path d="M7.61 84.728c.704 3.372 3.958 6.247 7.27 6.247h29.976c3.31 0 5.425-2.875 4.72-6.246l-4.75-22.663c-.703-3.371-3.958-6.009-7.27-6.009H7.58c-3.31 0-5.424 2.635-4.72 6.01l4.75 22.661Z" fill="#fff"/><path d="M4.884 84.155c.704 3.372 3.96 6.247 7.27 6.247H42.13c3.312 0 5.425-2.875 4.721-6.247l-4.75-22.662c-.703-3.371-3.958-6.01-7.269-6.01H4.856c-3.312 0-5.425 2.636-4.72 6.01l4.748 22.662Z" fill="#BBB8BD"/><path d="M78.515 43.16c-9.824 2.791 7.03 30.07 7.03 30.07l15.289-5.328c-2.697-6.052-12.496-27.535-22.32-24.743Z" fill="#A8A2CC"/><path d="M37.857 21.573c.26-.384 2.104-3.898 2.945-3.512.842.386 2.063 3.042.26 4.67" fill="#F5BCA4"/><path d="M30.349 30.165s4.082.737 5.93 2.67c1.848 1.935 5.542-3.222 6.32-3.959.777-.736 1.94-2.946.485-4.875-1.456-1.928-6.902-3.222-7.583-2.67-.68.552-7.486 6.72-5.445 8.472" fill="#F5BCA4"/><path d="M121.317 89.628a60.907 60.907 0 0 0-.165-9.683c-.517-5.308.029-5.722 3.095-10.935 3.067-5.214 1.934-7.678 3.774-11.707 1.84-4.029 1.035-2.898 4.76-6.018 3.725-3.12 7.958-2.584 9.264-6.81 0 0-1.304 8.73-2.643 14.172-1.339 5.443-1.579 7.81-4.452 10.227-2.874 2.416-3.744 3.734-4.499 9.799-.756 6.064-5.196 11.18-6.713 12.053-1.518.872-2.421-1.098-2.421-1.098Z" fill="#128046"/><path d="m122.414 88.606 4.48-14.782s1.832-7.278 1.021-9.017c-.812-1.74-4.917-7.294-5.575-9.787-.657-2.493-.433-5.588-.277-9.285.157-3.697-3.493-12.497-3.638-13.703-.145-1.205-.761 8.677-2.805 12.181-2.045 3.505-4.463 3.991-3.687 7.877.777 3.885-2.053 7.43-2.616 10.26-.563 2.828-1.464 8.336 1.189 15.36 2.653 7.026 5.262 15.086 8.152 16.075 2.889.99 3.676-3.822 3.756-5.18Z" fill="#67CD6A"/><path d="M115.726 91.25s3.057-5.292 1.591-8.35-4.577-2.457-4.759-8.202c-.183-5.744 1.321-6.56-.171-9.416-1.492-2.857-6.406-7.22-12.94-6.246-6.565.98-10.556 11.24-10.556 11.24s5.55-6.81 8.521-4.57c2.971 2.24 2.692 2.611 2.632 4.85-.06 2.238 3.443 5.776 5.551 7.492 2.108 1.715.36 2.948.674 7.687.315 4.74 5.497 7.231 9.457 5.514Z" fill="#128046"/><path d="M119.283 89.238c0-.029-.042-2.867-.53-5.424-.327-1.713-.685-5.888-1.035-9.928a521.665 521.665 0 0 0-.569-6.283c-.237-2.34-.415-3.69-.589-4.98a134.198 134.198 0 0 1-.719-6.446c-.541-5.98 3.189-10.866 3.189-10.866-.032.047-3.157 5.034-2.632 10.813a131.5 131.5 0 0 0 .716 6.422c.173 1.303.353 2.65.591 4.997.187 1.845.381 4.106.57 6.293.346 4.027.705 8.187 1.026 9.869.499 2.61-.018 5.533-.018 5.533Z" fill="#BAD461"/><path d="M122.785 87.817c.744-3.446 6.201-20.631 7.849-22.847 1.575-2.108 5.635-11.71 5.675-11.808 0 0-3.615 9.983-5.228 12.152-1.532 2.058-8.296 22.503-8.296 22.503Z" fill="#39A76D"/><path d="M129.848 90.317h-23.032v4.085h23.032v-4.085Z" fill="#128046"/><path d="M132.873 97.102c0 .768-.3 1.505-.834 2.05a2.821 2.821 0 0 1-2.013.848H3.913a2.82 2.82 0 0 1-2.013-.849 2.926 2.926 0 0 1 .002-4.095 2.82 2.82 0 0 1 2.011-.846h126.118c.754 0 1.477.304 2.011.846s.834 1.278.836 2.046h-.005Z" fill="#403B45"/><path d="M85.56 22.543h-4.566c-1.778 0-3.186-1.521-3.186-3.313V3.368c0-1.79 1.408-3.368 3.186-3.368h40.067c1.777 0 3.539 1.577 3.539 3.368V19.23c0 1.792-1.762 3.313-3.539 3.313h-26.77c-2.872 4.306-8.284 5.91-12.457 5.91-.123-.001 4.298-2.51 3.725-5.91Z" fill="#ED4C6B"/><path d="M84.887 7.078c.64 0 1.169.077 1.584.232.419.154.73.388.932.7.203.312.304.706.304 1.183 0 .322-.06.604-.183.845a1.926 1.926 0 0 1-.483.613c-.2.168-.415.305-.647.41l2.076 3.077h-1.66l-1.686-2.71h-.797v2.71H82.83v-7.06h2.057Zm-.106 1.226h-.454v1.908h.483c.496 0 .85-.082 1.062-.246.216-.168.324-.412.324-.734 0-.335-.116-.573-.348-.715-.228-.142-.584-.213-1.067-.213ZM93.425 14.138h-4.066v-7.06h4.066v1.226h-2.57v1.55h2.391v1.227h-2.39v1.82h2.569v1.237ZM97.158 7.078c.91 0 1.575.196 1.994.589.418.39.628.927.628 1.613 0 .309-.047.605-.14.888-.094.28-.247.53-.46.749-.208.219-.488.393-.84.521-.35.126-.783.189-1.298.189h-.643v2.51h-1.496v-7.06h2.255Zm-.078 1.226h-.68V10.4h.492c.28 0 .523-.037.73-.11a.971.971 0 0 0 .477-.349c.113-.157.17-.36.17-.608 0-.348-.097-.605-.29-.773-.194-.17-.493-.256-.899-.256ZM107.521 10.598c0 .544-.068 1.04-.203 1.487a3.163 3.163 0 0 1-.618 1.15c-.274.322-.622.57-1.043.743-.422.171-.921.256-1.497.256-.577 0-1.076-.085-1.497-.256a2.726 2.726 0 0 1-1.048-.743 3.183 3.183 0 0 1-.614-1.154 5.155 5.155 0 0 1-.202-1.492c0-.731.119-1.367.357-1.908a2.726 2.726 0 0 1 1.111-1.265c.499-.3 1.133-.45 1.902-.45.766 0 1.396.15 1.888.45.496.3.863.721 1.101 1.265.242.544.363 1.183.363 1.917Zm-5.153 0c0 .493.061.918.184 1.275.125.354.32.628.584.82.264.19.605.286 1.024.286.425 0 .769-.095 1.033-.285.264-.193.456-.467.575-.821.122-.357.183-.782.183-1.275 0-.74-.138-1.323-.415-1.748-.277-.425-.733-.637-1.367-.637-.421 0-.766.096-1.033.29-.264.19-.459.463-.584.82-.123.354-.184.78-.184 1.275ZM111.041 7.078c.64 0 1.168.077 1.584.232.418.154.729.388.932.7.203.312.304.706.304 1.183a1.838 1.838 0 0 1-.666 1.458c-.2.168-.416.305-.648.41l2.077 3.077h-1.661l-1.686-2.71h-.796v2.71h-1.497v-7.06h2.057Zm-.106 1.226h-.454v1.908h.483c.495 0 .849-.082 1.062-.246.216-.168.323-.412.323-.734 0-.335-.115-.573-.347-.715-.229-.142-.585-.213-1.067-.213ZM118.236 14.138h-1.497V8.324h-1.917V7.078h5.331v1.246h-1.917v5.814Z" fill="#fff"/></svg>